<svg width="155" height="50" viewBox="0 0 155 50" fill="none" xmlns="http://www.w3.org/2000/svg">
<g filter="url(#filter0_i_1_1252)">
<path d="M77.8 25.04C76.9867 25.4933 76.1267 25.8267 75.22 26.04C74.3267 26.2533 73.42 26.36 72.5 26.36C71.3933 26.36 70.38 26.18 69.46 25.82C68.54 25.46 67.74 24.9533 67.06 24.3C66.3933 23.6467 65.8733 22.8667 65.5 21.96C65.1267 21.04 64.94 20.0267 64.94 18.92C64.94 17.8 65.1333 16.7867 65.52 15.88C65.92 14.96 66.4667 14.18 67.16 13.54C67.8533 12.8867 68.66 12.38 69.58 12.02C70.5 11.66 71.4933 11.48 72.56 11.48C73.4933 11.48 74.3867 11.62 75.24 11.9C76.1067 12.18 76.88 12.66 77.56 13.34L76.3 14.66C75.82 14.14 75.2333 13.74 74.54 13.46C73.86 13.18 73.16 13.04 72.44 13.04C71.6267 13.04 70.8733 13.1867 70.18 13.48C69.4867 13.7733 68.88 14.18 68.36 14.7C67.8533 15.22 67.4533 15.84 67.16 16.56C66.88 17.28 66.74 18.0667 66.74 18.92C66.74 19.76 66.88 20.54 67.16 21.26C67.4533 21.98 67.8533 22.6067 68.36 23.14C68.88 23.66 69.5 24.0667 70.22 24.36C70.94 24.6533 71.7333 24.8 72.6 24.8C73.1733 24.8 73.7733 24.7333 74.4 24.6C75.0267 24.4533 75.6 24.2467 76.12 23.98V19.64H72.86V18.08H77.8V25.04ZM83.3264 11.84H92.2264V13.4H85.0064V17.84H91.7464V19.4H85.0064V24.44H92.5864V26H83.3264V11.84ZM97.1819 11.84H99.6819L104.482 22.94H104.522L109.362 11.84H111.802V26H110.122V14.12H110.082L105.002 26H103.982L98.9019 14.12H98.8619V26H97.1819V11.84ZM117.326 11.84H119.006V24.44H125.486V26H117.326V11.84ZM133.926 11.84H135.506L141.526 26H139.566L138.126 22.52H131.046L129.586 26H127.686L133.926 11.84ZM134.686 14H134.646L131.706 20.96H137.486L134.686 14ZM147.264 19.9L141.984 11.84H144.124L148.104 18.24L152.204 11.84H154.224L148.944 19.9V26H147.264V19.9Z" fill="black"/>
</g>
<g filter="url(#filter1_i_1_1252)">
<path d="M75.66 32.69H77.28C77.5 32.69 77.715 32.7125 77.925 32.7575C78.135 32.8025 78.3225 32.8775 78.4875 32.9825C78.6525 33.0825 78.785 33.215 78.885 33.38C78.99 33.545 79.0425 33.75 79.0425 33.995C79.0425 34.305 78.9575 34.5625 78.7875 34.7675C78.6225 34.9675 78.3975 35.11 78.1125 35.195V35.21C78.2825 35.225 78.44 35.27 78.585 35.345C78.735 35.415 78.8625 35.5075 78.9675 35.6225C79.0775 35.7375 79.1625 35.8725 79.2225 36.0275C79.2825 36.1775 79.3125 36.34 79.3125 36.515C79.3125 36.81 79.25 37.0525 79.125 37.2425C79.005 37.4325 78.845 37.585 78.645 37.7C78.45 37.81 78.2275 37.8875 77.9775 37.9325C77.7325 37.9775 77.4875 38 77.2425 38H75.66V32.69ZM76.29 34.94H77.16C77.31 34.94 77.455 34.93 77.595 34.91C77.74 34.89 77.87 34.85 77.985 34.79C78.1 34.725 78.1925 34.6375 78.2625 34.5275C78.3325 34.4125 78.3675 34.2625 78.3675 34.0775C78.3675 33.9125 78.335 33.78 78.27 33.68C78.205 33.575 78.1175 33.4925 78.0075 33.4325C77.9025 33.3725 77.78 33.3325 77.64 33.3125C77.505 33.2875 77.3675 33.275 77.2275 33.275H76.29V34.94ZM76.29 37.415H77.355C77.51 37.415 77.6625 37.4 77.8125 37.37C77.9675 37.335 78.105 37.2825 78.225 37.2125C78.35 37.1375 78.45 37.0425 78.525 36.9275C78.6 36.8075 78.6375 36.6625 78.6375 36.4925C78.6375 36.3075 78.6 36.1525 78.525 36.0275C78.455 35.9025 78.36 35.8025 78.24 35.7275C78.125 35.6525 77.99 35.6 77.835 35.57C77.685 35.54 77.53 35.525 77.37 35.525H76.29V37.415ZM81.6366 35.7125L79.6566 32.69H80.4591L81.9516 35.09L83.4891 32.69H84.2466L82.2666 35.7125V38H81.6366V35.7125Z" fill="black"/>
<path d="M91.4696 35.03V37.6475C91.3396 37.7275 91.1921 37.7975 91.0271 37.8575C90.8621 37.9175 90.6896 37.9675 90.5096 38.0075C90.3346 38.0525 90.1546 38.085 89.9696 38.105C89.7896 38.125 89.6196 38.135 89.4596 38.135C89.0096 38.135 88.6071 38.06 88.2521 37.91C87.9021 37.76 87.6046 37.5575 87.3596 37.3025C87.1196 37.0475 86.9346 36.7525 86.8046 36.4175C86.6796 36.0775 86.6171 35.72 86.6171 35.345C86.6171 34.95 86.6846 34.5825 86.8196 34.2425C86.9596 33.9025 87.1496 33.6075 87.3896 33.3575C87.6346 33.1075 87.9271 32.9125 88.2671 32.7725C88.6071 32.6275 88.9796 32.555 89.3846 32.555C89.8746 32.555 90.2746 32.6175 90.5846 32.7425C90.8946 32.8625 91.1546 33.03 91.3646 33.245L90.8546 33.7925C90.6346 33.5825 90.4021 33.4375 90.1571 33.3575C89.9121 33.2725 89.6546 33.23 89.3846 33.23C89.0796 33.23 88.8046 33.2875 88.5596 33.4025C88.3146 33.5125 88.1046 33.6625 87.9296 33.8525C87.7546 34.0425 87.6196 34.2675 87.5246 34.5275C87.4296 34.7825 87.3821 35.055 87.3821 35.345C87.3821 35.645 87.4346 35.925 87.5396 36.185C87.6446 36.44 87.7896 36.6625 87.9746 36.8525C88.1596 37.0425 88.3771 37.1925 88.6271 37.3025C88.8771 37.4075 89.1496 37.46 89.4446 37.46C89.6996 37.46 89.9396 37.4375 90.1646 37.3925C90.3946 37.3425 90.5896 37.2725 90.7496 37.1825V35.705H89.5721V35.03H91.4696ZM94.4496 32.69H95.1021L97.3746 38H96.5346L96.0021 36.6875H93.4746L92.9496 38H92.1096L94.4496 32.69ZM95.7396 36.0575L94.7496 33.62H94.7346L93.7296 36.0575H95.7396ZM98.0653 32.69H99.9328C100.273 32.69 100.553 32.7375 100.773 32.8325C100.993 32.9225 101.165 33.04 101.29 33.185C101.42 33.325 101.51 33.485 101.56 33.665C101.61 33.84 101.635 34.01 101.635 34.175C101.635 34.345 101.605 34.51 101.545 34.67C101.485 34.825 101.398 34.9675 101.283 35.0975C101.173 35.2225 101.035 35.33 100.87 35.42C100.71 35.505 100.53 35.5575 100.33 35.5775L101.838 38H100.938L99.5878 35.66H98.7853V38H98.0653V32.69ZM98.7853 35.03H99.7303C99.8703 35.03 100.008 35.02 100.143 35C100.283 34.975 100.405 34.9325 100.51 34.8725C100.62 34.8125 100.708 34.7275 100.773 34.6175C100.838 34.5025 100.87 34.355 100.87 34.175C100.87 33.995 100.838 33.85 100.773 33.74C100.708 33.625 100.62 33.5375 100.51 33.4775C100.405 33.4175 100.283 33.3775 100.143 33.3575C100.008 33.3325 99.8703 33.32 99.7303 33.32H98.7853V35.03ZM102.65 32.69H103.595L106.52 37.055H106.535V32.69H107.255V38H106.34L103.385 33.635H103.37V38H102.65V32.69ZM108.62 32.69H112.047V33.365H109.34V34.9475H111.86V35.6225H109.34V37.325H112.182V38H108.62V32.69ZM114.314 33.365H112.604V32.69H116.744V33.365H115.034V38H114.314V33.365ZM119.599 32.69H120.319V37.325H122.756V38H119.599V32.69ZM125.153 32.69H125.805L128.078 38H127.238L126.705 36.6875H124.178L123.653 38H122.813L125.153 32.69ZM126.443 36.0575L125.453 33.62H125.438L124.433 36.0575H126.443ZM128.768 32.69H129.713L132.638 37.055H132.653V32.69H133.373V38H132.458L129.503 33.635H129.488V38H128.768V32.69ZM134.738 32.69H138.165V33.365H135.458V34.9475H137.978V35.6225H135.458V37.325H138.3V38H134.738V32.69ZM139.323 32.69H142.75V33.365H140.043V34.9475H142.563V35.6225H140.043V37.325H142.885V38H139.323V32.69Z" fill="#009278"/>
</g>
<g filter="url(#filter2_i_1_1252)">
<path fill-rule="evenodd" clip-rule="evenodd" d="M44.93 0.497071C44.7264 0.770571 44.2516 1.74616 43.8749 2.66541L43.1902 4.33645L44.2319 7.80335C44.805 9.71012 45.2737 11.3071 45.2737 11.3524C45.2737 11.3977 44.139 11.3869 42.752 11.3286C35.2877 11.014 28.6756 14.5231 25.3336 20.573C21.8674 26.8476 22.9798 34.588 28.0953 39.7915C29.4049 41.1237 32.4155 43.3004 32.9482 43.3004C33.2551 43.3004 35.8906 41.1416 35.8906 40.8904C35.8906 40.7994 35.3362 40.4841 34.659 40.1901C33.9002 39.8605 32.7481 39.0192 31.658 37.9983C28.8403 35.3599 27.6803 32.7828 27.6803 29.1615C27.6803 25.7938 28.8016 23.1089 31.2302 20.662C33.7085 18.165 37.0252 16.7705 40.5821 16.7301C45.2744 16.6768 49.2759 18.6315 51.8267 22.2233C55.122 26.8635 54.8396 32.6839 51.1049 37.1014C49.932 38.489 47.4318 40.1881 45.5754 40.8595C44.2904 41.3243 44.1454 41.4568 42.8524 43.3517L41.4867 45.353L42.9802 45.2089C45.1958 44.9951 47.7215 44.2705 49.8417 43.2403C52.4891 41.9539 55.8075 38.8288 57.1734 36.3354C60.1483 30.9052 60.0006 24.7605 56.7723 19.6429C55.6841 17.918 53.5175 15.6317 52.0849 14.6967C51.5642 14.357 51.1386 14.0178 51.1391 13.9432C51.1396 13.8685 52.776 13.0317 54.7758 12.0832C58.7739 10.1871 58.6811 10.2741 59.6015 7.56365C60.077 6.1639 60.1031 5.91956 59.8061 5.65048C59.4202 5.30098 46.1119 0 45.6197 0C45.444 0 45.1337 0.223571 44.93 0.497071ZM5.33362 13.5689C2.39998 16.4146 0 18.8918 0 19.0736C0 19.5676 2.54893 22.2504 3.25642 22.5012C3.59422 22.6209 5.55107 22.8266 7.60481 22.9583C9.65878 23.0902 11.3717 23.2285 11.4113 23.2658C11.451 23.3031 11.0085 24.2224 10.428 25.3086C9.02166 27.9405 8.44437 30.1837 8.44648 33.0077C8.45 37.8675 10.3311 42.0345 13.9952 45.3002C15.7048 46.8239 16.3755 47.267 18.4637 48.2541C21.9692 49.911 26.6965 50.3853 30.6982 49.482C36.1711 48.2462 40.9302 44.3405 43.0851 39.3161C45.6298 33.3831 44.2936 26.4415 39.6809 21.6281L38.4275 20.3205L37.0714 21.0014C36.3255 21.3756 35.3911 21.9979 34.9952 22.3841L34.275 23.0862L35.5978 24.0803C37.1653 25.2585 38.8784 27.5406 39.6267 29.4478C40.2924 31.1436 40.5312 34.4437 40.1228 36.297C39.3682 39.7202 36.5117 43.222 33.2511 44.7211C27.7089 47.2695 22.0816 46.4302 17.824 42.4205C13.679 38.5166 12.7259 33.1856 15.2664 28.113C15.8331 26.981 16.5097 26.161 18.0684 24.7157C19.5521 23.3402 20.17 22.6033 20.2911 22.0647C20.3833 21.6544 20.8168 20.4104 21.2545 19.3001C22.2472 16.782 22.2627 16.5129 21.4053 16.7058C20.1041 16.9987 17.6865 17.9281 16.8094 18.4727C16.3138 18.7804 15.8751 19 15.8345 18.9605C15.794 18.921 15.5849 17.4472 15.3698 15.6854C15.155 13.9235 14.8735 12.1603 14.7444 11.7671C14.4878 10.9857 11.6304 8.39498 11.0252 8.39498C10.8282 8.39498 8.26702 10.7233 5.33362 13.5689Z" fill="url(#paint0_linear_1_1252)"/>
</g>
<line x1="84" y1="45.25" x2="134" y2="45.25" stroke="#012433" stroke-width="1.5"/>
<defs>
<filter id="filter0_i_1_1252" x="64.94" y="11.48" width="89.2841" height="18.88" filterUnits="userSpaceOnUse" color-interpolation-filters="sRGB">
<feFlood flood-opacity="0" result="BackgroundImageFix"/>
<feBlend mode="normal" in="SourceGraphic" in2="BackgroundImageFix" result="shape"/>
<feColorMatrix in="SourceAlpha" type="matrix" values="0 0 0 0 0 0 0 0 0 0 0 0 0 0 0 0 0 0 127 0" result="hardAlpha"/>
<feOffset dy="4"/>
<feGaussianBlur stdDeviation="2"/>
<feComposite in2="hardAlpha" operator="arithmetic" k2="-1" k3="1"/>
<feColorMatrix type="matrix" values="0 0 0 0 0 0 0 0 0 0 0 0 0 0 0 0 0 0 0.25 0"/>
<feBlend mode="normal" in2="shape" result="effect1_innerShadow_1_1252"/>
</filter>
<filter id="filter1_i_1_1252" x="75.66" y="32.555" width="67.2251" height="9.58" filterUnits="userSpaceOnUse" color-interpolation-filters="sRGB">
<feFlood flood-opacity="0" result="BackgroundImageFix"/>
<feBlend mode="normal" in="SourceGraphic" in2="BackgroundImageFix" result="shape"/>
<feColorMatrix in="SourceAlpha" type="matrix" values="0 0 0 0 0 0 0 0 0 0 0 0 0 0 0 0 0 0 127 0" result="hardAlpha"/>
<feOffset dy="4"/>
<feGaussianBlur stdDeviation="2"/>
<feComposite in2="hardAlpha" operator="arithmetic" k2="-1" k3="1"/>
<feColorMatrix type="matrix" values="0 0 0 0 0 0 0 0 0 0 0 0 0 0 0 0 0 0 0.25 0"/>
<feBlend mode="normal" in2="shape" result="effect1_innerShadow_1_1252"/>
</filter>
<filter id="filter2_i_1_1252" x="0" y="0" width="60" height="53.9333" filterUnits="userSpaceOnUse" color-interpolation-filters="sRGB">
<feFlood flood-opacity="0" result="BackgroundImageFix"/>
<feBlend mode="normal" in="SourceGraphic" in2="BackgroundImageFix" result="shape"/>
<feColorMatrix in="SourceAlpha" type="matrix" values="0 0 0 0 0 0 0 0 0 0 0 0 0 0 0 0 0 0 127 0" result="hardAlpha"/>
<feOffset dy="4"/>
<feGaussianBlur stdDeviation="2"/>
<feComposite in2="hardAlpha" operator="arithmetic" k2="-1" k3="1"/>
<feColorMatrix type="matrix" values="0 0 0 0 0 0 0 0 0 0 0 0 0 0 0 0 0 0 0.25 0"/>
<feBlend mode="normal" in2="shape" result="effect1_innerShadow_1_1252"/>
</filter>
<linearGradient id="paint0_linear_1_1252" x1="30" y1="0" x2="30" y2="49.9333" gradientUnits="userSpaceOnUse">
<stop stop-color="#012433"/>
<stop offset="1" stop-color="#007A64"/>
</linearGradient>
</defs>
</svg>
